<?xml version="1.0" encoding="UTF-8" standalone="no"?>
<svg
   width="256"
   height="86"
   viewBox="0 0 256 86"
   fill="none"
   version="1.1"
   id="svg15"
   xmlns="http://www.w3.org/2000/svg"
   xmlns:svg="http://www.w3.org/2000/svg">
  <defs
     id="defs15" />
  <path
     d="m 88.68233,68.911622 c -2.001367,0 -3.673793,-0.448821 -5.017157,-1.346603 -1.343365,-0.929781 -2.35779,-2.276384 -3.043153,-4.03981 -0.685484,-1.763425 -1.069268,-3.927675 -1.151472,-6.492606 l 5.22273,-1.202329 c 0.05485,1.507017 0.205572,2.83748 0.452307,3.991812 0.274218,1.154191 0.671804,2.051974 1.192636,2.693206 0.548314,0.609094 1.261159,0.913782 2.138536,0.913782 0.986942,0 1.685986,-0.336686 2.097252,-1.010059 0.411265,-0.70537 0.616839,-1.587012 0.616839,-2.645067 0,-1.699288 -0.328941,-3.09403 -0.986943,-4.184083 -0.658001,-1.090195 -1.535257,-2.180249 -2.631885,-3.270302 l -4.194745,-4.328498 c -1.178835,-1.186189 -2.124735,-2.500794 -2.83758,-3.943533 -0.685363,-1.474878 -1.028106,-3.286442 -1.028106,-5.43455 0,-3.078031 0.767689,-5.45055 2.302946,-7.11784 1.535377,-1.667149 3.632629,-2.500794 6.291997,-2.500794 1.562739,0 2.865062,0.288547 3.906848,0.865643 1.041785,0.545097 1.864318,1.314605 2.467476,2.308523 0.63052,0.993918 1.096629,2.13211 1.398209,3.414575 0.301579,1.250468 0.49347,2.580931 0.575795,3.991671 l -5.181687,1.058055 c -0.05485,-1.218328 -0.178211,-2.308381 -0.370103,-3.270301 -0.164531,-0.96192 -0.47979,-1.715287 -0.9459,-2.260385 -0.438628,-0.545097 -1.096629,-0.817504 -1.974005,-0.817504 -0.904737,0 -1.603781,0.352685 -2.097252,1.058055 -0.46611,0.673231 -0.699164,1.522875 -0.699164,2.548932 0,1.314464 0.233054,2.404659 0.699164,3.270302 0.465988,0.833645 1.137792,1.699288 2.015046,2.597071 l 4.153583,4.280218 c 1.370726,1.346603 2.536001,2.933757 3.495582,4.761179 0.986941,1.795565 1.480413,3.975813 1.480413,6.540744 0,1.859561 -0.356423,3.510711 -1.069268,4.953591 -0.685363,1.442738 -1.658625,2.58093 -2.919785,3.414575 -1.233677,0.801648 -2.686728,1.20233 -4.359154,1.20233 z"
     fill="#fd5734"
     id="path1"
     style="stroke-width:1.30924" />
  <path
     d="m 111.03211,68.911622 c -2.35719,0 -4.23615,-0.512958 -5.63327,-1.539016 -1.39833,-1.025916 -2.39956,-2.500794 -3.00247,-4.424492 -0.60292,-1.923698 -0.90438,-4.200224 -0.90438,-6.829292 V 41.546597 c 0,-2.629069 0.30146,-4.873454 0.90438,-6.733015 0.60291,-1.891701 1.60414,-3.334439 3.00247,-4.328357 1.39712,-0.993918 3.27608,-1.490877 5.63327,-1.490877 2.41288,0 4.30395,0.496959 5.67564,1.490877 1.39834,0.993918 2.39835,2.436656 3.00127,4.328357 0.63076,1.859561 0.94675,4.103946 0.94675,6.733015 V 56.16696 c 0,2.597071 -0.31599,4.857456 -0.94675,6.781154 -0.60292,1.8917 -1.60293,3.366437 -3.00127,4.424492 -1.37169,1.026058 -3.26276,1.539016 -5.67564,1.539016 z m 0,-5.242139 c 1.01454,0 1.75427,-0.25655 2.22038,-0.769508 0.49396,-0.512957 0.82325,-1.218328 0.98791,-2.11611 0.16465,-0.897641 0.24577,-1.87556 0.24577,-2.933616 V 39.911446 c 0,-1.090053 -0.0811,-2.067972 -0.24577,-2.933615 -0.16466,-0.865785 -0.49395,-1.539016 -0.98791,-2.019976 -0.46611,-0.512958 -1.20584,-0.769507 -2.22038,-0.769507 -0.95885,0 -1.68647,0.256549 -2.17922,0.769507 -0.49395,0.48096 -0.82326,1.154191 -0.9867,2.019976 -0.16465,0.865643 -0.24697,1.843562 -0.24697,2.933615 v 17.938803 c 0,1.058056 0.0678,2.035975 0.20581,2.933616 0.16345,0.897782 0.49276,1.603153 0.9867,2.11611 0.49276,0.512958 1.23368,0.769508 2.22038,0.769508 z"
     fill="#fd5734"
     id="path2"
     style="stroke-width:1.30924" />
  <path
     d="M 126.52875,68.382665 V 29.427169 h 7.97714 c 2.24822,0 4.1405,0.320546 5.67563,0.961779 1.563,0.609235 2.74219,1.66729 3.53639,3.174166 0.82325,1.507017 1.23368,3.558991 1.23368,6.15592 0,1.571155 -0.12349,2.981895 -0.36926,4.232221 -0.24698,1.250468 -0.67192,2.324522 -1.27484,3.222305 -0.57628,0.865643 -1.385,1.539015 -2.42741,2.019834 l 4.64778,19.189271 h -6.08605 l -4.03033,-17.842668 h -2.79667 v 17.842668 z m 6.08606,-22.315299 h 1.89108 c 1.17919,0 2.11142,-0.192412 2.79666,-0.577095 0.71308,-0.416823 1.22036,-1.058056 1.52181,-1.923699 0.30147,-0.897782 0.4528,-2.035974 0.4528,-3.414575 0,-1.955838 -0.31599,-3.414717 -0.94675,-4.376495 -0.60292,-0.993918 -1.76759,-1.490877 -3.49523,-1.490877 h -2.22037 z"
     fill="#fd5734"
     id="path3"
     style="stroke-width:1.30924" />
  <path
     d="M 154.12123,68.382665 V 34.669308 h -5.30517 v -5.242139 h 16.61409 v 5.242139 h -5.22164 v 33.713357 z"
     fill="#fd5734"
     id="path4"
     style="stroke-width:1.30924" />
  <path
     d="M 169.99681,68.382665 V 29.427169 h 6.00374 v 38.955496 z"
     fill="#fd5734"
     id="path5"
     style="stroke-width:1.30924" />
  <path
     d="M 185.85908,68.382665 V 34.669308 h -5.30518 v -5.242139 h 16.61409 v 5.242139 h -5.22285 v 33.713357 z"
     fill="#fd5734"
     id="path6"
     style="stroke-width:1.30924" />
  <path
     d="M 201.73345,68.382665 V 29.427169 h 6.00494 v 38.955496 z"
     fill="#fd5734"
     id="path7"
     style="stroke-width:1.30924" />
  <path
     d="m 223.31251,68.911622 c -2.35719,0 -4.23616,-0.512958 -5.63448,-1.539016 -1.39712,-1.025916 -2.39835,-2.500794 -3.00126,-4.424492 -0.60292,-1.923698 -0.90559,-4.200224 -0.90559,-6.829292 V 41.546597 c 0,-2.629069 0.30267,-4.873454 0.90559,-6.733015 0.60291,-1.891701 1.60414,-3.334439 3.00126,-4.328357 1.39832,-0.993918 3.27729,-1.490877 5.63448,-1.490877 2.41288,0 4.30394,0.496959 5.67564,1.490877 1.39834,0.993918 2.39835,2.436656 3.00126,4.328357 0.63076,1.859561 0.94675,4.103946 0.94675,6.733015 V 56.16696 c 0,2.597071 -0.31599,4.857456 -0.94675,6.781154 -0.60291,1.8917 -1.60292,3.366437 -3.00126,4.424492 -1.3717,1.026058 -3.26276,1.539016 -5.67564,1.539016 z m 0,-5.242139 c 1.01454,0 1.75427,-0.25655 2.22038,-0.769508 0.49396,-0.512957 0.82325,-1.218328 0.98791,-2.11611 0.16344,-0.897641 0.24576,-1.87556 0.24576,-2.933616 V 39.911446 c 0,-1.090053 -0.0823,-2.067972 -0.24576,-2.933615 -0.16466,-0.865785 -0.49395,-1.539016 -0.98791,-2.019976 -0.46611,-0.512958 -1.20584,-0.769507 -2.22038,-0.769507 -0.96007,0 -1.68648,0.256549 -2.17922,0.769507 -0.49395,0.48096 -0.82325,1.154191 -0.9867,2.019976 -0.16465,0.865643 -0.24697,1.843562 -0.24697,2.933615 v 17.938803 c 0,1.058056 0.0678,2.035975 0.20581,2.933616 0.16344,0.897782 0.49275,1.603153 0.9867,2.11611 0.49274,0.512958 1.23368,0.769508 2.22038,0.769508 z"
     fill="#fd5734"
     id="path8"
     style="stroke-width:1.30924" />
  <path
     d="M 238.80915,68.382665 V 29.427169 h 4.23493 l 8.10184,22.219022 V 29.427169 h 5.01703 v 38.955496 h -4.03033 l -8.14179,-23.277077 v 23.277077 z"
     fill="#fd5734"
     id="path9"
     style="stroke-width:1.30924" />
  <path
     fill-rule="evenodd"
     clip-rule="evenodd"
     d="m 23.116091,71.346296 c 0,2.00879 1.655704,3.637287 3.698054,3.637287 2.042495,0 3.698198,-1.628497 3.698198,-3.637287 0,-2.00879 -1.655703,-3.637287 -3.698198,-3.637287 -2.04235,0 -3.698054,1.628497 -3.698054,3.637287 z m 3.698054,13.943026 c -2.04235,0 -3.698054,-1.628496 -3.698054,-3.637286 0,-2.008791 1.655704,-3.637287 3.698054,-3.637287 2.042495,0 3.698198,1.628496 3.698198,3.637287 0,2.00879 -1.655703,3.637286 -3.698198,3.637286 z m 11.094307,0 c -2.042495,0 -3.698055,-1.628496 -3.698055,-3.637286 0,-2.008791 1.65556,-3.637287 3.698055,-3.637287 2.04235,0 3.698054,1.628496 3.698054,3.637287 0,2.00879 -1.655704,3.637286 -3.698054,3.637286 z m 0,-10.305739 c -2.042495,0 -3.698055,-1.628497 -3.698055,-3.637287 0,-2.00879 1.65556,-3.637287 3.698055,-3.637287 2.04235,0 3.698054,1.628497 3.698054,3.637287 0,2.00879 -1.655704,3.637287 -3.698054,3.637287 z"
     fill="#720046"
     id="path10"
     style="stroke-width:1.42761" />
  <path
     fill-rule="evenodd"
     clip-rule="evenodd"
     d="m 32.361514,53.766124 c 0,2.008791 1.655704,3.637287 3.698054,3.637287 2.042352,0 3.698055,-1.628496 3.698055,-3.637287 0,-2.008931 -1.655703,-3.637286 -3.698055,-3.637286 -2.04235,0 -3.698054,1.628355 -3.698054,3.637286 z M 19.41818,62.859341 c 0,2.00879 1.655705,3.637287 3.698055,3.637287 2.042495,0 3.698054,-1.628497 3.698054,-3.637287 0,-2.00879 -1.655559,-3.637287 -3.698054,-3.637287 -2.04235,0 -3.698055,1.628497 -3.698055,3.637287 z m 18.490272,0 c 0,2.00879 1.655703,3.637287 3.698054,3.637287 2.042494,0 3.698198,-1.628497 3.698198,-3.637287 0,-2.00879 -1.655704,-3.637287 -3.698198,-3.637287 -2.042351,0 -3.698054,1.628497 -3.698054,3.637287 z m -5.546938,3.637287 c -2.042494,0 -3.698054,-1.628497 -3.698054,-3.637287 0,-2.00879 1.65556,-3.637287 3.698054,-3.637287 2.042352,0 3.698054,1.628497 3.698054,3.637287 0,2.00879 -1.655702,3.637287 -3.698054,3.637287 z m -5.54708,-9.093217 c -2.042496,0 -3.698055,-1.628496 -3.698055,-3.637287 0,-2.008931 1.655559,-3.637286 3.698055,-3.637286 2.042349,0 3.698054,1.628355 3.698054,3.637286 0,2.008791 -1.655705,3.637287 -3.698054,3.637287 z"
     fill="#820043"
     id="path11"
     style="stroke-width:1.42761" />
  <path
     fill-rule="evenodd"
     clip-rule="evenodd"
     d="m 28.663316,43.460385 c 0,2.00879 1.65556,3.637286 3.698054,3.637286 2.042352,0 3.698055,-1.628496 3.698055,-3.637286 0,-2.008791 -1.655703,-3.637287 -3.698055,-3.637287 -2.042494,0 -3.698054,1.628496 -3.698054,3.637287 z m -9.245279,1.212381 c 0,2.008791 1.655703,3.637287 3.698054,3.637287 2.042494,0 3.698054,-1.628496 3.698054,-3.637287 0,-2.00879 -1.65556,-3.637286 -3.698054,-3.637286 -2.042351,0 -3.698054,1.628496 -3.698054,3.637286 z m 22.188469,3.031167 c -2.042351,0 -3.698054,-1.628497 -3.698054,-3.637287 0,-2.008932 1.655703,-3.637286 3.698054,-3.637286 2.042351,0 3.698055,1.628354 3.698055,3.637286 0,2.00879 -1.655704,3.637287 -3.698055,3.637287 z m -1.45e-4,6.062191 c 0,2.008791 1.655705,3.637287 3.698055,3.637287 2.042351,0 3.698054,-1.628496 3.698054,-3.637287 0,-2.008931 -1.655703,-3.637428 -3.698054,-3.637428 -2.04235,0 -3.698055,1.628497 -3.698055,3.637428 z m -24.037208,5.455789 c -2.042494,0 -3.698053,-1.628355 -3.698053,-3.637287 0,-2.00879 1.655559,-3.637287 3.698053,-3.637287 2.042352,0 3.698055,1.628497 3.698055,3.637287 0,2.008932 -1.655703,3.637287 -3.698055,3.637287 z"
     fill="#900d3f"
     id="path12"
     style="stroke-width:1.42761" />
  <path
     fill-rule="evenodd"
     clip-rule="evenodd"
     d="m 34.210397,25.273951 c 0,2.008791 1.65556,3.637287 3.698055,3.637287 2.04235,0 3.698054,-1.628496 3.698054,-3.637287 0,-2.008931 -1.655704,-3.637286 -3.698054,-3.637286 -2.042495,0 -3.698055,1.628355 -3.698055,3.637286 z m 1.849028,12.730504 c -2.042351,0 -3.698055,-1.628497 -3.698055,-3.637287 0,-2.00879 1.655704,-3.637287 3.698055,-3.637287 2.042351,0 3.698054,1.628497 3.698054,3.637287 0,2.00879 -1.655703,3.637287 -3.698054,3.637287 z m 14.792217,10.911859 c -2.042496,0 -3.698055,-1.628496 -3.698055,-3.637286 0,-2.00879 1.655559,-3.637287 3.698055,-3.637287 2.04235,0 3.698053,1.628497 3.698053,3.637287 0,2.00879 -1.655703,3.637286 -3.698053,3.637286 z M 26.814289,38.004455 c -2.042494,0 -3.698198,-1.628497 -3.698198,-3.637287 0,-2.00879 1.655704,-3.637287 3.698198,-3.637287 2.042351,0 3.698054,1.628497 3.698054,3.637287 0,2.00879 -1.655703,3.637287 -3.698054,3.637287 z M 41.606506,34.97343 c 0,2.00879 1.65556,3.637286 3.698055,3.637286 2.04235,0 3.698054,-1.628496 3.698054,-3.637286 0,-2.008932 -1.655704,-3.637287 -3.698054,-3.637287 -2.042495,0 -3.698055,1.628355 -3.698055,3.637287 z M 12.638318,50.735099 c -2.04235,0 -3.6980538,-1.628496 -3.6980538,-3.637286 0,-2.008932 1.6557038,-3.637428 3.6980538,-3.637428 2.042352,0 3.698055,1.628496 3.698055,3.637428 0,2.00879 -1.655703,3.637286 -3.698055,3.637286 z"
     fill="#c70039"
     id="path13"
     style="stroke-width:1.42761" />
  <path
     fill-rule="evenodd"
     clip-rule="evenodd"
     d="m 39.757479,18.605498 c -2.042351,0 -3.698054,-1.628496 -3.698054,-3.637286 0,-2.008791 1.655703,-3.637287 3.698054,-3.637287 2.042495,0 3.698054,1.628496 3.698054,3.637287 0,2.00879 -1.655559,3.637286 -3.698054,3.637286 z m 12.943334,19.398957 c 0,2.00879 1.655559,3.637286 3.698055,3.637286 2.04235,0 3.698053,-1.628496 3.698053,-3.637286 0,-2.008791 -1.655703,-3.637287 -3.698053,-3.637287 -2.042496,0 -3.698055,1.628496 -3.698055,3.637287 z M 1.5441559,39.823098 c 0,2.00879 1.6557034,3.637287 3.6980542,3.637287 2.0423509,0 3.6980541,-1.628497 3.6980541,-3.637287 0,-2.00879 -1.6557032,-3.637287 -3.6980541,-3.637287 -2.0423508,0 -3.6980542,1.628497 -3.6980542,3.637287 z M 21.267208,24.061428 c 0,2.008932 1.655703,3.637287 3.698198,3.637287 2.042351,0 3.698054,-1.628355 3.698054,-3.637287 0,-2.00879 -1.655703,-3.637286 -3.698054,-3.637286 -2.042495,0 -3.698198,1.628496 -3.698198,3.637286 z m 27.735551,6.668453 c -2.042495,0 -3.698055,-1.628496 -3.698055,-3.637286 0,-2.008791 1.65556,-3.637287 3.698055,-3.637287 2.04235,0 3.698054,1.628496 3.698054,3.637287 0,2.00879 -1.655704,3.637286 -3.698054,3.637286 z"
     fill="#ff0025"
     id="path14"
     style="stroke-width:1.42761" />
  <path
     fill-rule="evenodd"
     clip-rule="evenodd"
     d="m 41.606506,8.299758 c -2.042351,0 -3.698054,-1.6283548 -3.698054,-3.6372867 0,-2.0087903 1.655703,-3.6372866 3.698054,-3.6372866 2.042351,0 3.698055,1.6284963 3.698055,3.6372866 0,2.0089319 -1.655704,3.6372867 -3.698055,3.6372867 z m 22.188326,26.06741 c -2.042352,0 -3.698055,-1.628496 -3.698055,-3.637428 0,-2.008791 1.655703,-3.637287 3.698055,-3.637287 2.04235,0 3.698053,1.628496 3.698053,3.637287 0,2.008932 -1.655703,3.637428 -3.698053,3.637428 z M 20.034427,13.75583 c 0,2.00879 1.655703,3.637287 3.698054,3.637287 2.042495,0 3.698054,-1.628497 3.698054,-3.637287 0,-2.008932 -1.655559,-3.637287 -3.698054,-3.637287 -2.042351,0 -3.698054,1.628355 -3.698054,3.637287 z m 32.666243,7.880835 c -2.042352,0 -3.698055,-1.628497 -3.698055,-3.637428 0,-2.008791 1.655703,-3.637287 3.698055,-3.637287 2.042349,0 3.698053,1.628496 3.698053,3.637287 0,2.008931 -1.655704,3.637428 -3.698053,3.637428 z"
     fill="#fd5734"
     id="path15"
     style="stroke-width:1.42761" />
</svg>
